<svg version="1.1" xmlns="http://www.w3.org/2000/svg" viewBox="0 0 1099.6666666666667 913.4285714285714" width="2199.3333333333335" height="1826.857142857143">
  <!-- svg-source:excalidraw -->
  
  <defs>
    <style class="style-fonts">
      @font-face {
        font-family: "Virgil";
        src: url("https://excalidraw.com/Virgil.woff2");
      }
      @font-face {
        font-family: "Cascadia";
        src: url("https://excalidraw.com/Cascadia.woff2");
      }
      @font-face {
        font-family: "Assistant";
        src: url("https://excalidraw.com/Assistant-Regular.woff2");
      }
    </style>
    
  </defs>
  <g stroke-linecap="round" transform="translate(10 369.92857142857133) rotate(0 125 89.5)"><path d="M32 0 C98.84 -0.85, 163.53 2.1, 218 0 C236.99 1.28, 250.25 7.29, 250 32 C251.35 71.03, 252.44 108.52, 250 147 C247.52 169.81, 235.9 181.81, 218 179 C179.18 177.24, 137.06 179.29, 32 179 C12.33 181.12, -0.87 165.07, 0 147 C-1.53 100.74, 2.94 60.38, 0 32 C-2.91 13.33, 8.2 2.41, 32 0" stroke="none" stroke-width="0" fill="#ffffff"></path><path d="M32 0 C99.52 -0.81, 164.11 -1.18, 218 0 M32 0 C99.75 0.95, 165.55 1.71, 218 0 M218 0 C238.32 0.72, 250.73 11.94, 250 32 M218 0 C240.81 -1.7, 248.85 8.7, 250 32 M250 32 C250.27 58.76, 247.48 82.29, 250 147 M250 32 C251.46 58.43, 250.78 86.08, 250 147 M250 147 C250.96 166.85, 240.1 178.73, 218 179 M250 147 C251.93 168.52, 237.7 178.16, 218 179 M218 179 C170.97 179.28, 124.04 178.25, 32 179 M218 179 C146.24 180.8, 72.7 180.11, 32 179 M32 179 C10.01 178.23, 1.37 168.47, 0 147 M32 179 C11.98 177.27, -1.21 168.94, 0 147 M0 147 C-1.17 122.84, -0.2 95.79, 0 32 M0 147 C0.59 122.41, 1 98.5, 0 32 M0 32 C1.31 8.82, 10.33 0.52, 32 0 M0 32 C0.42 9.13, 8.37 -1.49, 32 0" stroke="#1e1e1e" stroke-width="2" fill="none"></path></g><g transform="translate(30 441.92857142857133) rotate(0 105 17.5)"><text x="105" y="24.528" font-family="Virgil, Segoe UI Emoji" font-size="28px" fill="#1e1e1e" text-anchor="middle" style="white-space: pre;" direction="ltr" dominant-baseline="alphabetic">load documents</text></g><g stroke-linecap="round" transform="translate(427 10) rotate(0 125 89.5)"><path d="M32 0 C66.6 -4.25, 107.85 0.9, 218 0 C239.69 -0.63, 246.51 14.18, 250 32 C252.47 63.58, 253.82 97.02, 250 147 C246.84 168.89, 239.6 179.99, 218 179 C164.5 182.48, 107.89 176.25, 32 179 C7.13 175.57, -2.57 166.86, 0 147 C-2.21 100.49, 0.28 55.77, 0 32 C-0.33 10.7, 12.5 -0.9, 32 0" stroke="none" stroke-width="0" fill="#ffffff"></path><path d="M32 0 C98.13 3.01, 162.23 1.21, 218 0 M32 0 C99.07 -1.79, 167.87 -1.52, 218 0 M218 0 C237.99 0.56, 248.81 10.85, 250 32 M218 0 C238.46 -1.63, 248.99 10.02, 250 32 M250 32 C250.97 73.21, 248.01 118.28, 250 147 M250 32 C251.49 55.22, 249.71 78.82, 250 147 M250 147 C250.06 169.81, 239.2 179.94, 218 179 M250 147 C250.79 166.98, 239.45 179.64, 218 179 M218 179 C180.56 180.55, 141.14 179.95, 32 179 M218 179 C178.01 181.11, 137.04 181.46, 32 179 M32 179 C9.65 177.53, 0.58 168.41, 0 147 M32 179 C9.39 179.87, -1.39 169.4, 0 147 M0 147 C0.76 122.21, -0.29 99.54, 0 32 M0 147 C-0.3 108.17, -0.13 70.4, 0 32 M0 32 C-1.23 12.59, 11.78 1.64, 32 0 M0 32 C0.54 9.17, 12.84 1.67, 32 0" stroke="#1e1e1e" stroke-width="2" fill="none"></path></g><g transform="translate(481.83333587646484 82) rotate(0 70.16666412353516 17.5)"><text x="70.16666412353516" y="24.528" font-family="Virgil, Segoe UI Emoji" font-size="28px" fill="#1e1e1e" text-anchor="middle" style="white-space: pre;" direction="ltr" dominant-baseline="alphabetic">Transform</text></g><g stroke-linecap="round" transform="translate(429 251.42857142857144) rotate(0 125 89.5)"><path d="M32 0 C81.87 3.64, 137.86 -2.59, 218 0 C239.37 -3.13, 253.06 8.24, 250 32 C247.68 73.25, 253.12 117.53, 250 147 C250.7 168.23, 239.21 176.71, 218 179 C163.96 174.42, 108.43 177.43, 32 179 C11.41 180.62, 1.63 168.56, 0 147 C-0.54 101.55, 4.31 56.73, 0 32 C2.89 9.49, 9.93 0.24, 32 0" stroke="none" stroke-width="0" fill="#ffffff"></path><path d="M32 0 C102.8 -0.19, 175.83 -2.08, 218 0 M32 0 C105.08 -1.61, 178.43 -1.6, 218 0 M218 0 C237.6 1.7, 249.21 10.86, 250 32 M218 0 C238.98 0.27, 248.38 8.62, 250 32 M250 32 C250.78 73.52, 248.52 117.09, 250 147 M250 32 C249.24 62.98, 249.64 94.34, 250 147 M250 147 C249.98 169.89, 240.62 178.12, 218 179 M250 147 C248.08 166.46, 241.23 180.01, 218 179 M218 179 C165.16 177.76, 112.74 179.51, 32 179 M218 179 C156.42 178.06, 96.44 177.41, 32 179 M32 179 C10.76 180.97, 1.35 169.87, 0 147 M32 179 C10.98 179.17, 0.18 169.98, 0 147 M0 147 C1.65 105.05, 0.61 62.29, 0 32 M0 147 C1.03 117.31, 0.12 89.92, 0 32 M0 32 C-1.91 9.53, 10.3 0.94, 32 0 M0 32 C-1.33 8.7, 11.74 1.64, 32 0" stroke="#1e1e1e" stroke-width="2" fill="none"></path></g><g transform="translate(515 323.42857142857144) rotate(0 39 17.5)"><text x="39" y="24.528" font-family="Virgil, Segoe UI Emoji" font-size="28px" fill="#1e1e1e" text-anchor="middle" style="white-space: pre;" direction="ltr" dominant-baseline="alphabetic">Enrich</text></g><g stroke-linecap="round" transform="translate(426 491.42857142857144) rotate(0 125 89.5)"><path d="M32 0 C106.85 6.28, 183.73 1.53, 218 0 C240.4 0.99, 251.3 13.71, 250 32 C250.77 69.39, 248.07 107.54, 250 147 C247.36 169.33, 236.69 175.61, 218 179 C172.9 182.79, 122.26 176.69, 32 179 C9.73 181.35, 3.05 166.5, 0 147 C3.5 123.01, -0.51 101.42, 0 32 C-3.49 7.45, 11.45 1.75, 32 0" stroke="none" stroke-width="0" fill="#ffffff"></path><path d="M32 0 C99.51 -1.53, 168.56 0.9, 218 0 M32 0 C87.72 0.27, 143.63 -0.83, 218 0 M218 0 C237.56 2, 251.44 10.33, 250 32 M218 0 C241.3 -0.75, 248.95 11.22, 250 32 M250 32 C252.66 57.93, 251.89 84.23, 250 147 M250 32 C250.22 65.11, 251.86 98, 250 147 M250 147 C249.39 167.22, 240.36 178.8, 218 179 M250 147 C251.32 170.31, 239.7 177.11, 218 179 M218 179 C166.88 178.7, 113.74 176.37, 32 179 M218 179 C180.24 179.45, 139.86 179.76, 32 179 M32 179 C11.93 179.16, -1.51 168.72, 0 147 M32 179 C9.49 176.91, 1.06 166.55, 0 147 M0 147 C1.73 121.51, 0.44 98.43, 0 32 M0 147 C-0.32 104.64, 0.67 61.36, 0 32 M0 32 C-1.97 9.32, 9.3 -0.08, 32 0 M0 32 C-1.18 9.03, 10.7 -0.53, 32 0" stroke="#1e1e1e" stroke-width="2" fill="none"></path></g><g transform="translate(513.7666664123535 563.4285714285714) rotate(0 37.233333587646484 17.5)"><text x="37.233333587646484" y="24.528" font-family="Virgil, Segoe UI Emoji" font-size="28px" fill="#1e1e1e" text-anchor="middle" style="white-space: pre;" direction="ltr" dominant-baseline="alphabetic">Chunk</text></g><g stroke-linecap="round" transform="translate(432 724.4285714285714) rotate(0 125 89.5)"><path d="M32 0 C80.31 -2.75, 127.86 -5.55, 218 0 C240.54 2.33, 251.63 10.59, 250 32 C244.35 64.16, 246.94 93.65, 250 147 C251.56 171.01, 235.74 179.28, 218 179 C143.55 179.73, 71.94 178.63, 32 179 C8.49 180.3, 0.5 169.4, 0 147 C-4.74 113.73, -1.6 87.09, 0 32 C-0.7 9.29, 13.61 -3.51, 32 0" stroke="none" stroke-width="0" fill="#ffffff"></path><path d="M32 0 C78.42 -1.64, 119.86 -1.99, 218 0 M32 0 C73 0.03, 113.23 -0.66, 218 0 M218 0 C239.78 -0.9, 248.88 11.86, 250 32 M218 0 C238.27 2.03, 248.78 11.83, 250 32 M250 32 C252.41 55.52, 250.61 81.2, 250 147 M250 32 C251.57 56.79, 250.83 82.08, 250 147 M250 147 C250.96 166.41, 238.52 178.27, 218 179 M250 147 C247.96 169.69, 240.19 176.76, 218 179 M218 179 C175.02 176.48, 131.38 179.21, 32 179 M218 179 C148.65 178.38, 79.97 177.47, 32 179 M32 179 C10.14 180.74, -1.8 168.51, 0 147 M32 179 C9.37 179.47, -2.23 167.89, 0 147 M0 147 C-0.46 108.91, 0.83 67.28, 0 32 M0 147 C-1.01 120.21, -1.33 93.01, 0 32 M0 32 C0.33 9.27, 11.79 -0.14, 32 0 M0 32 C-0.6 11.22, 9.47 1.63, 32 0" stroke="#1e1e1e" stroke-width="2" fill="none"></path></g><g transform="translate(515.966667175293 796.4285714285714) rotate(0 41.03333282470703 17.5)"><text x="41.03333282470703" y="24.528" font-family="Virgil, Segoe UI Emoji" font-size="28px" fill="#1e1e1e" text-anchor="middle" style="white-space: pre;" direction="ltr" dominant-baseline="alphabetic">Embed</text></g><g stroke-linecap="round" transform="translate(839.6666666666667 371.8214285714289) rotate(0 125 89.5)"><path d="M32 0 C104.47 4.71, 172.99 0.14, 218 0 C239.67 -0.81, 246.82 7.78, 250 32 C254.11 56.44, 253.86 80.13, 250 147 C247.36 170.23, 240.96 177.05, 218 179 C181.88 174.74, 136.36 176.12, 32 179 C8.6 182.26, 1.51 167.47, 0 147 C-1.86 107.82, 1.65 65.72, 0 32 C-3.13 13.13, 7.24 0.43, 32 0" stroke="none" stroke-width="0" fill="#ffffff"></path><path d="M32 0 C81.15 0.48, 127.1 1.03, 218 0 M32 0 C91.53 0.01, 152.29 -1.13, 218 0 M218 0 C239.53 1.04, 249.6 9.17, 250 32 M218 0 C241.31 2.27, 250.99 9, 250 32 M250 32 C249.36 61.59, 247.96 87, 250 147 M250 32 C249.41 77.21, 249.3 120.6, 250 147 M250 147 C248.6 167.88, 239.31 178.84, 218 179 M250 147 C250.4 168.81, 238.24 180.76, 218 179 M218 179 C146.65 178.65, 73.22 179.34, 32 179 M218 179 C179.15 180.62, 139.52 179.62, 32 179 M32 179 C10.7 180.37, 0.86 169.78, 0 147 M32 179 C11.59 177.04, 1.29 166.57, 0 147 M0 147 C2.47 114.14, -0.75 78.06, 0 32 M0 147 C0.84 120.57, 1 94.47, 0 32 M0 32 C0.77 11.13, 11.65 -0.5, 32 0 M0 32 C2.19 8.84, 10.19 -1, 32 0" stroke="#1e1e1e" stroke-width="2" fill="none"></path></g><g transform="translate(915.5666681925456 443.8214285714289) rotate(0 49.099998474121094 17.5)"><text x="49.099998474121094" y="24.528" font-family="Virgil, Segoe UI Emoji" font-size="28px" fill="#1e1e1e" text-anchor="middle" style="white-space: pre;" direction="ltr" dominant-baseline="alphabetic">Persist</text></g><g stroke-linecap="round"><g transform="translate(264.66666666666674 467.0357142857147) rotate(0 55.26619835699904 -0.6039909933182344)"><path d="M0.42 -0.2 C18.69 -0.44, 90.93 -1.02, 109.11 -0.9 M-0.81 -1.36 C17.86 -1.52, 93.14 0.2, 111.35 0.16" stroke="#ced4da" stroke-width="2" fill="none"></path></g><g transform="translate(264.66666666666674 467.0357142857147) rotate(0 55.26619835699904 -0.6039909933182344)"><path d="M87.76 8.43 C93.53 4.7, 98.51 3.15, 111.35 0.16 M87.76 8.43 C96.14 6.37, 103.38 2.21, 111.35 0.16" stroke="#ced4da" stroke-width="2" fill="none"></path></g><g transform="translate(264.66666666666674 467.0357142857147) rotate(0 55.26619835699904 -0.6039909933182344)"><path d="M87.96 -8.67 C93.75 -7.94, 98.69 -5.04, 111.35 0.16 M87.96 -8.67 C96.29 -4.9, 103.46 -3.23, 111.35 0.16" stroke="#ced4da" stroke-width="2" fill="none"></path></g></g><mask></mask><g stroke-linecap="round"><g transform="translate(703.2380952380952 461.321428571429) rotate(0 67.73351061461233 -0.24361373697874456)"><path d="M-1.02 0.3 C21.73 0.17, 113.86 -0.72, 136.49 -0.8 M0.65 -0.59 C23.3 -0.58, 113.19 0.05, 135.94 0.31" stroke="#ced4da" stroke-width="2" fill="none"></path></g><g transform="translate(703.2380952380952 461.321428571429) rotate(0 67.73351061461233 -0.24361373697874456)"><path d="M112.38 8.66 C119.98 7.63, 125.25 2.25, 135.94 0.31 M112.38 8.66 C118.55 6.64, 126.64 4.34, 135.94 0.31" stroke="#ced4da" stroke-width="2" fill="none"></path></g><g transform="translate(703.2380952380952 461.321428571429) rotate(0 67.73351061461233 -0.24361373697874456)"><path d="M112.53 -8.44 C120.08 -4.32, 125.31 -4.54, 135.94 0.31 M112.53 -8.44 C118.65 -5.64, 126.7 -3.12, 135.94 0.31" stroke="#ced4da" stroke-width="2" fill="none"></path></g></g><mask></mask><g stroke-linecap="round"><g transform="translate(693.2380952380952 87.03571428571468) rotate(0 35.64122656498682 -31.46099086201616)"><path d="M0.38 0.42 C12.56 -8.55, 74.08 -42.21, 73.75 -52.84 C73.42 -63.47, 10.87 -61.82, -1.61 -63.35 M-0.88 -0.4 C11.04 -9.25, 72.78 -40.98, 72.52 -51.3 C72.25 -61.61, 9.74 -60.16, -2.47 -62.29" stroke="#ced4da" stroke-width="2" fill="none"></path></g><g transform="translate(693.2380952380952 87.03571428571468) rotate(0 35.64122656498682 -31.46099086201616)"><path d="M21.52 -69.34 C13.78 -67.65, 4.59 -64.56, -2.47 -62.29 M21.52 -69.34 C14.49 -67.35, 9.43 -65.66, -2.47 -62.29" stroke="#ced4da" stroke-width="2" fill="none"></path></g><g transform="translate(693.2380952380952 87.03571428571468) rotate(0 35.64122656498682 -31.46099086201616)"><path d="M20.44 -52.27 C12.94 -56.64, 4.14 -59.6, -2.47 -62.29 M20.44 -52.27 C13.64 -54.72, 8.87 -57.45, -2.47 -62.29" stroke="#ced4da" stroke-width="2" fill="none"></path></g></g><mask></mask><g stroke-linecap="round"><g transform="translate(697.596868673108 329.9252765763022) rotate(0 36.29939834261563 -31.566282474462497)"><path d="M-0.35 0.26 C12.28 -8.76, 74.96 -43.22, 74.79 -53.83 C74.61 -64.44, 11.18 -61.8, -1.42 -63.39 M1.67 -0.65 C14.26 -9.57, 74.74 -42.51, 74.1 -52.8 C73.46 -63.08, 10.21 -60.74, -2.19 -62.36" stroke="#ced4da" stroke-width="2" fill="none"></path></g><g transform="translate(697.596868673108 329.9252765763022) rotate(0 36.29939834261563 -31.566282474462497)"><path d="M21.62 -70 C16.86 -67.57, 9.6 -66.72, -2.19 -62.36 M21.62 -70 C15.92 -68.8, 8.93 -65.48, -2.19 -62.36" stroke="#ced4da" stroke-width="2" fill="none"></path></g><g transform="translate(697.596868673108 329.9252765763022) rotate(0 36.29939834261563 -31.566282474462497)"><path d="M20.96 -52.92 C16.31 -54.22, 9.19 -57.11, -2.19 -62.36 M20.96 -52.92 C15.35 -56.07, 8.52 -57.11, -2.19 -62.36" stroke="#ced4da" stroke-width="2" fill="none"></path></g></g><mask></mask><g stroke-linecap="round"><g transform="translate(695.5101254669082 564.316282474463) rotate(0 37.097978502575074 -31.701265148286325)"><path d="M0.24 0.04 C12.51 -8.52, 73.29 -41.09, 73.17 -51.67 C73.05 -62.25, 11.91 -61.47, -0.47 -63.44 M-1.1 -0.98 C11.57 -9.82, 75.23 -42.92, 75.29 -53.17 C75.35 -63.41, 11.93 -60.83, -0.74 -62.43" stroke="#ced4da" stroke-width="2" fill="none"></path></g><g transform="translate(695.5101254669082 564.316282474463) rotate(0 37.097978502575074 -31.701265148286325)"><path d="M23.04 -70.16 C16.88 -69.96, 12.59 -64.48, -0.74 -62.43 M23.04 -70.16 C17.71 -67.65, 10.3 -66.19, -0.74 -62.43" stroke="#ced4da" stroke-width="2" fill="none"></path></g><g transform="translate(695.5101254669082 564.316282474463) rotate(0 37.097978502575074 -31.701265148286325)"><path d="M22.44 -53.07 C16.48 -57.33, 12.34 -56.32, -0.74 -62.43 M22.44 -53.07 C17.21 -54.85, 9.95 -57.69, -0.74 -62.43" stroke="#ced4da" stroke-width="2" fill="none"></path></g></g><mask></mask><g stroke-linecap="round"><g transform="translate(700.4258310212347 795.8798365768582) rotate(0 36.16477005573722 -31.29550310320093)"><path d="M-0.23 1.17 C12.37 -7.32, 74.77 -40.99, 74.57 -51.82 C74.36 -62.64, 11.34 -62.11, -1.46 -63.76 M-1.81 0.74 C10.75 -7.98, 73.84 -42.78, 73.77 -53.39 C73.69 -64, 10.46 -61.2, -2.24 -62.92" stroke="#ced4da" stroke-width="2" fill="none"></path></g><g transform="translate(700.4258310212347 795.8798365768582) rotate(0 36.16477005573722 -31.29550310320093)"><path d="M21.55 -70.6 C18.43 -68.56, 13.19 -67.45, -2.24 -62.92 M21.55 -70.6 C16.55 -69.48, 10.88 -67.31, -2.24 -62.92" stroke="#ced4da" stroke-width="2" fill="none"></path></g><g transform="translate(700.4258310212347 795.8798365768582) rotate(0 36.16477005573722 -31.29550310320093)"><path d="M20.92 -53.51 C18.06 -55.08, 12.95 -57.58, -2.24 -62.92 M20.92 -53.51 C16.17 -56.23, 10.64 -57.9, -2.24 -62.92" stroke="#ced4da" stroke-width="2" fill="none"></path></g></g><mask></mask><g stroke-linecap="round"><g transform="translate(551.8095238095239 197.03571428571468) rotate(0 0.9220364961539076 23.02192012899637)"><path d="M-0.06 0.36 C0.3 8.03, 2.21 38.5, 2.6 45.97 M-0.76 0.07 C-0.53 7.59, 1.36 37.56, 2.04 45.14" stroke="#ced4da" stroke-width="2" fill="none"></path></g><g transform="translate(551.8095238095239 197.03571428571468) rotate(0 0.9220364961539076 23.02192012899637)"><path d="M-7.36 24.25 C-3.15 31.7, 0.21 39.07, 2.04 45.14 M-7.36 24.25 C-5.77 28.76, -3.78 33.01, 2.04 45.14" stroke="#ced4da" stroke-width="2" fill="none"></path></g><g transform="translate(551.8095238095239 197.03571428571468) rotate(0 0.9220364961539076 23.02192012899637)"><path d="M8.26 23.1 C6.56 30.97, 4.01 38.78, 2.04 45.14 M8.26 23.1 C6.61 27.8, 5.35 32.28, 2.04 45.14" stroke="#ced4da" stroke-width="2" fill="none"></path></g></g><mask></mask><g stroke-linecap="round"><g transform="translate(553.2380952380953 442.75000000000034) rotate(0 -0.02922537943027237 18.60655076522866)"><path d="M0.04 0.14 C0 6.29, -0.4 31.38, -0.46 37.48 M-0.6 -0.26 C-0.46 5.97, 0.57 30.45, 0.54 36.68" stroke="#ced4da" stroke-width="2" fill="none"></path></g><g transform="translate(553.2380952380953 442.75000000000034) rotate(0 -0.02922537943027237 18.60655076522866)"><path d="M-6.19 19.37 C-4.08 23.18, -1.97 28.07, 0.54 36.68 M-6.19 19.37 C-4.9 23.47, -3.39 27.43, 0.54 36.68" stroke="#ced4da" stroke-width="2" fill="none"></path></g><g transform="translate(553.2380952380953 442.75000000000034) rotate(0 -0.02922537943027237 18.60655076522866)"><path d="M6.51 19.1 C5.25 22.99, 4 27.94, 0.54 36.68 M6.51 19.1 C4.93 23.26, 3.55 27.29, 0.54 36.68" stroke="#ced4da" stroke-width="2" fill="none"></path></g></g><mask></mask><g stroke-linecap="round"><g transform="translate(553.2380952380953 677.0357142857147) rotate(0 0.654170558844271 19.034623060201454)"><path d="M0.42 0.05 C0.71 6.38, 1.07 31.63, 1.33 38.04 M-0.02 -0.39 C0.21 5.97, 0.53 31.88, 0.85 38.46" stroke="#ced4da" stroke-width="2" fill="none"></path></g><g transform="translate(553.2380952380953 677.0357142857147) rotate(0 0.654170558844271 19.034623060201454)"><path d="M-6.26 20.52 C-4.48 24.52, -3.85 29.83, 0.85 38.46 M-6.26 20.52 C-3.89 25.51, -1.64 30.72, 0.85 38.46" stroke="#ced4da" stroke-width="2" fill="none"></path></g><g transform="translate(553.2380952380953 677.0357142857147) rotate(0 0.654170558844271 19.034623060201454)"><path d="M6.94 20.15 C5.63 24.28, 3.17 29.68, 0.85 38.46 M6.94 20.15 C5.47 25.21, 3.88 30.54, 0.85 38.46" stroke="#ced4da" stroke-width="2" fill="none"></path></g></g><mask></mask></svg>